<mxfile host="app.diagrams.net" modified="2022-03-09T21:23:14.530Z" agent="5.0 (Windows NT 10.0; Win64; x64) AppleWebKit/537.36 (KHTML, like Gecko) Chrome/99.0.4844.51 Safari/537.36" etag="t4IRa-JEnBZv1LyHw1iW" version="17.1.0" type="github" pages="2">
  <diagram id="HZwBNgTBuxzB_huA4fSz" name="States">
    <mxGraphModel dx="1133" dy="672" grid="1" gridSize="10" guides="1" tooltips="1" connect="1" arrows="1" fold="1" page="1" pageScale="1" pageWidth="850" pageHeight="1100" background="#EEEEEE" math="0" shadow="0">
      <root>
        <mxCell id="0" />
        <mxCell id="1" parent="0" />
        <mxCell id="dBZ0WQO3sVNUnGLNvLoS-22" value="AIState" style="swimlane;fontStyle=1;align=center;verticalAlign=top;childLayout=stackLayout;horizontal=1;startSize=26;horizontalStack=0;resizeParent=1;resizeParentMax=0;resizeLast=0;collapsible=1;marginBottom=0;fillColor=#ffcd28;rounded=0;strokeColor=#d79b00;gradientColor=#ffa500;" vertex="1" parent="1">
          <mxGeometry x="360" y="40" width="160" height="114" as="geometry">
            <mxRectangle x="360" y="40" width="70" height="26" as="alternateBounds" />
          </mxGeometry>
        </mxCell>
        <mxCell id="dBZ0WQO3sVNUnGLNvLoS-23" value="+ AIMoveGenerator" style="text;strokeColor=none;fillColor=none;align=left;verticalAlign=top;spacingLeft=4;spacingRight=4;overflow=hidden;rotatable=0;points=[[0,0.5],[1,0.5]];portConstraint=eastwest;rounded=0;fontColor=#1A1A1A;" vertex="1" parent="dBZ0WQO3sVNUnGLNvLoS-22">
          <mxGeometry y="26" width="160" height="20" as="geometry" />
        </mxCell>
        <mxCell id="dBZ0WQO3sVNUnGLNvLoS-24" value="" style="line;strokeWidth=1;fillColor=none;align=left;verticalAlign=middle;spacingTop=-1;spacingLeft=3;spacingRight=3;rotatable=0;labelPosition=right;points=[];portConstraint=eastwest;rounded=0;labelBackgroundColor=#EEEEEE;strokeColor=#909090;fontColor=#1A1A1A;" vertex="1" parent="dBZ0WQO3sVNUnGLNvLoS-22">
          <mxGeometry y="46" width="160" height="8" as="geometry" />
        </mxCell>
        <mxCell id="dBZ0WQO3sVNUnGLNvLoS-25" value="+ Enter(void) = 0" style="text;strokeColor=none;fillColor=none;align=left;verticalAlign=middle;spacingLeft=4;spacingRight=4;overflow=hidden;rotatable=0;points=[[0,0.5],[1,0.5]];portConstraint=eastwest;spacing=0;rounded=0;fontColor=#1A1A1A;" vertex="1" parent="dBZ0WQO3sVNUnGLNvLoS-22">
          <mxGeometry y="54" width="160" height="20" as="geometry" />
        </mxCell>
        <mxCell id="dBZ0WQO3sVNUnGLNvLoS-27" value="+ Execute(void) = 0" style="text;html=1;strokeColor=none;fillColor=none;align=left;verticalAlign=middle;whiteSpace=wrap;rounded=0;spacingLeft=4;spacingRight=4;spacing=0;fontColor=#1A1A1A;" vertex="1" parent="dBZ0WQO3sVNUnGLNvLoS-22">
          <mxGeometry y="74" width="160" height="20" as="geometry" />
        </mxCell>
        <mxCell id="dBZ0WQO3sVNUnGLNvLoS-28" value="+ Exit(void) = 0" style="text;html=1;strokeColor=none;fillColor=none;align=left;verticalAlign=middle;whiteSpace=wrap;rounded=0;spacingLeft=4;spacingRight=4;spacing=0;fontColor=#1A1A1A;" vertex="1" parent="dBZ0WQO3sVNUnGLNvLoS-22">
          <mxGeometry y="94" width="160" height="20" as="geometry" />
        </mxCell>
        <mxCell id="dBZ0WQO3sVNUnGLNvLoS-37" value="Classname" style="swimlane;fontStyle=1;align=center;verticalAlign=top;childLayout=stackLayout;horizontal=1;startSize=26;horizontalStack=0;resizeParent=1;resizeParentMax=0;resizeLast=0;collapsible=1;marginBottom=0;rounded=0;fontFamily=Helvetica;fontSize=12;fillColor=#ffcd28;gradientColor=#ffa500;html=1;strokeColor=#d79b00;" vertex="1" parent="1">
          <mxGeometry x="160" y="200" width="160" height="86" as="geometry" />
        </mxCell>
        <mxCell id="dBZ0WQO3sVNUnGLNvLoS-38" value="+ field: type" style="text;strokeColor=none;fillColor=none;align=left;verticalAlign=top;spacingLeft=4;spacingRight=4;overflow=hidden;rotatable=0;points=[[0,0.5],[1,0.5]];portConstraint=eastwest;rounded=0;fontFamily=Helvetica;fontSize=12;fontColor=#1A1A1A;html=1;" vertex="1" parent="dBZ0WQO3sVNUnGLNvLoS-37">
          <mxGeometry y="26" width="160" height="26" as="geometry" />
        </mxCell>
        <mxCell id="dBZ0WQO3sVNUnGLNvLoS-39" value="" style="line;strokeWidth=1;fillColor=none;align=left;verticalAlign=middle;spacingTop=-1;spacingLeft=3;spacingRight=3;rotatable=0;labelPosition=right;points=[];portConstraint=eastwest;rounded=0;fontFamily=Helvetica;fontSize=12;fontColor=#1A1A1A;html=1;" vertex="1" parent="dBZ0WQO3sVNUnGLNvLoS-37">
          <mxGeometry y="52" width="160" height="8" as="geometry" />
        </mxCell>
        <mxCell id="dBZ0WQO3sVNUnGLNvLoS-40" value="+ method(type): type" style="text;strokeColor=none;fillColor=none;align=left;verticalAlign=top;spacingLeft=4;spacingRight=4;overflow=hidden;rotatable=0;points=[[0,0.5],[1,0.5]];portConstraint=eastwest;rounded=0;fontFamily=Helvetica;fontSize=12;fontColor=#1A1A1A;html=1;" vertex="1" parent="dBZ0WQO3sVNUnGLNvLoS-37">
          <mxGeometry y="60" width="160" height="26" as="geometry" />
        </mxCell>
      </root>
    </mxGraphModel>
  </diagram>
  <diagram id="zAtE7eKhjc8FS1noeVdu" name="Page-2">
    <mxGraphModel dx="1359" dy="806" grid="1" gridSize="10" guides="1" tooltips="1" connect="1" arrows="1" fold="1" page="1" pageScale="1" pageWidth="850" pageHeight="1100" math="0" shadow="0">
      <root>
        <mxCell id="ajx-NwymdZTZZT_LzvCN-0" />
        <mxCell id="ajx-NwymdZTZZT_LzvCN-1" parent="ajx-NwymdZTZZT_LzvCN-0" />
      </root>
    </mxGraphModel>
  </diagram>
</mxfile>
